{"accessors" : [{"bufferView" : 0, "byteOffset" : 0, "componentType" : 5123, "count" : 3072, "type" : "SCALAR", "max" : [3071], "min" : [0]}, {"bufferView" : 1, "byteOffset" : 0, "componentType" : 5126, "count" : 3072, "type" : "VEC3", "max" : [25.692123413085938, 2.5286612510681152, 16.093435287475586], "min" : [-9.845799446105957, -2.5286636352539062, -2.5659961700439453], "name" : "POSITION"}, {"bufferView" : 1, "byteOffset" : 12, "componentType" : 5126, "count" : 3072, "type" : "VEC3", "max" : [0.999683678150177, 0.9993587136268616, 0.9975126385688782], "min" : [-0.99974524974823, -0.9983723163604736, -0.9940732717514038], "name" : "NORMAL"}, {"bufferView" : 1, "byteOffset" : 24, "componentType" : 5126, "count" : 3072, "type" : "VEC3", "max" : [1, 1, 1], "min" : [1, 1, 1], "name" : "COLOR_0"}, {"bufferView" : 1, "byteOffset" : 36, "componentType" : 5126, "count" : 3072, "type" : "VEC2", "max" : [0.9978961944580078, -0.004768265411257744], "min" : [0.004181580152362585, -0.9983755350112915], "name" : "TEXCOORD_0"}, {"bufferView" : 0, "byteOffset" : 6144, "componentType" : 5123, "count" : 42894, "type" : "SCALAR", "max" : [42893], "min" : [0]}, {"bufferView" : 2, "byteOffset" : 0, "componentType" : 5126, "count" : 42894, "type" : "VEC3", "max" : [10.629265785217285, 11.858133316040039, 13.98708724975586], "min" : [-10.721521377563477, -14.184046745300293, -13.611626625061035], "name" : "POSITION"}, {"bufferView" : 2, "byteOffset" : 12, "componentType" : 5126, "count" : 42894, "type" : "VEC3", "max" : [0.9999172687530518, 0.9999578595161438, 0.9999881982803345], "min" : [-0.9999728798866272, -0.9999343156814575, -0.9999415278434753], "name" : "NORMAL"}, {"bufferView" : 2, "byteOffset" : 24, "componentType" : 5126, "count" : 42894, "type" : "VEC3", "max" : [1, 1, 1], "min" : [1, 1, 1], "name" : "COLOR_0"}, {"bufferView" : 2, "byteOffset" : 36, "componentType" : 5126, "count" : 42894, "type" : "VEC2", "max" : [0.9988777041435242, -0.0033334586769342422], "min" : [0.0016366943018510938, -0.9986035823822021], "name" : "TEXCOORD_0"}, {"bufferView" : 0, "byteOffset" : 91932, "componentType" : 5123, "count" : 1656, "type" : "SCALAR", "max" : [1655], "min" : [0]}, {"bufferView" : 3, "byteOffset" : 0, "componentType" : 5126, "count" : 1656, "type" : "VEC3", "max" : [8.843840599060059, 10.469792366027832, 10.053620338439941], "min" : [-8.83315658569336, -11.471158981323242, -3.7751717567443848], "name" : "POSITION"}, {"bufferView" : 3, "byteOffset" : 12, "componentType" : 5126, "count" : 1656, "type" : "VEC3", "max" : [0.9979091882705688, 0.9978818893432617, 0.16477784514427185], "min" : [-0.9983184337615967, -0.9909403920173645, -0.9996728301048279], "name" : "NORMAL"}, {"bufferView" : 3, "byteOffset" : 24, "componentType" : 5126, "count" : 1656, "type" : "VEC3", "max" : [1, 1, 1], "min" : [1, 1, 1], "name" : "COLOR_0"}, {"bufferView" : 3, "byteOffset" : 36, "componentType" : 5126, "count" : 1656, "type" : "VEC2", "max" : [0.7095197439193726, -0.20705869793891907], "min" : [0.066368468105793, -0.9237284660339355], "name" : "TEXCOORD_0"}], "asset" : {"generator" : "Aspose.3D 22.1", "version" : "2.0"}, "buffers" : [{"uri" : "data:application/octet-stream;base64,", "byteLength" : 2190628}], "bufferViews" : [{"buffer" : 0, "byteOffset" : 0, "byteLength" : 95244, "target" : 34963}, {"buffer" : 0, "byteOffset" : 95248, "byteLength" : 135168, "byteStride" : 44, "target" : 34962}, {"buffer" : 0, "byteOffset" : 230420, "byteLength" : 1887336, "byteStride" : 44, "target" : 34962}, {"buffer" : 0, "byteOffset" : 2117760, "byteLength" : 72864, "byteStride" : 44, "target" : 34962}], "materials" : [{"name" : "", "pbrMetallicRoughness" : {"baseColorFactor" : [0, 0, 0, 1], "metallicFactor" : 0, "roughnessFactor" : 0}, "emissiveFactor" : [0, 0, 0], "alphaMode" : "OPAQUE", "doubleSided" : false}, {"name" : "", "pbrMetallicRoughness" : {"baseColorFactor" : [0, 0, 0, 1], "metallicFactor" : 0, "roughnessFactor" : 0}, "emissiveFactor" : [0, 0, 0], "alphaMode" : "OPAQUE", "doubleSided" : false}, {"name" : "", "pbrMetallicRoughness" : {"baseColorFactor" : [0, 0, 0, 1], "metallicFactor" : 0, "roughnessFactor" : 0}, "emissiveFactor" : [0, 0, 0], "alphaMode" : "OPAQUE", "doubleSided" : false}], "meshes" : [{"primitives" : [{"attributes" : {"POSITION" : 1, "NORMAL" : 2, "COLOR_0" : 3, "TEXCOORD_0" : 4}, "indices" : 0, "material" : 0, "mode" : 4}], "name" : ""}, {"primitives" : [{"attributes" : {"POSITION" : 6, "NORMAL" : 7, "COLOR_0" : 8, "TEXCOORD_0" : 9}, "indices" : 5, "material" : 1, "mode" : 4}], "name" : ""}, {"primitives" : [{"attributes" : {"POSITION" : 11, "NORMAL" : 12, "COLOR_0" : 13, "TEXCOORD_0" : 14}, "indices" : 10, "material" : 2, "mode" : 4}], "name" : ""}], "nodes" : [{"matrix" : [1, 0, 0, 0, 0, 1, 0, 0, 0, 0, 1, 0, -7.92316198348999, 0.628534197807312, 1.0180740356445312, 1], "mesh" : 0, "name" : "GEO_Horns"}, {"matrix" : [1, 0, 0, 0, 0, 1, 0, 0, 0, 0, 1, 0, -0.19244849681854248, 1.162956714630127, -3.4998779296875, 1], "mesh" : 1, "name" : "GEO_Viking_Helmet"}, {"matrix" : [1, 0, 0, 0, 0, 1, 0, 0, 0, 0, 1, 0, -0.1931002140045166, 1.1444745063781738, -1.6839141845703125, 1], "mesh" : 2, "name" : "GEO_Liner_Wool"}, {"children" : [0, 1, 2], "matrix" : [1, 0, 0, 0, 0, 2.220446049250313E-16, -1, 0, 0, 1, 2.220446049250313E-16, 0, 0.035888671875, 28.020299911499023, 0.3746037483215332, 1], "name" : "GRP_Viking_Hornet_Helmet"}], "scene" : 0, "scenes" : [{"nodes" : [3]}]}